<?xml version="1.0" encoding="UTF-8" standalone="no"?>
<!DOCTYPE svg PUBLIC "-//W3C//DTD SVG 1.1//EN" "http://www.w3.org/Graphics/SVG/1.1/DTD/svg11.dtd">
<svg version="1.1" xmlns="http://www.w3.org/2000/svg" xmlns:xlink="http://www.w3.org/1999/xlink" preserveAspectRatio="xMidYMid meet" viewBox="0 0 630 523" width="100" height="83.02"><defs><path d="M1.4 106.04C1.77 107.88 52.2 247.62 52.82 248.36C53.06 248.6 120.6 226.59 130.56 222.89C131.67 222.52 132.04 253.03 132.04 373.22C132.04 383.27 132.04 433.54 132.04 524.03L315.33 524.03L498.62 524.03C498.62 433.54 498.62 383.27 498.62 373.22C498.62 253.03 498.99 222.52 500.22 222.89C510.07 226.59 577.6 248.6 577.85 248.36C578.09 248.12 589.91 215.76 604.17 176.52C626.07 116.12 629.88 104.92 628.28 103.81C627.29 103.08 586.21 79.33 536.88 51.17C530.9 47.76 501.01 30.7 447.2 0L414.11 0L380.89 0C380.45 4.21 380.21 6.55 380.16 7.01C378.31 27.44 364.78 47.36 345.96 57.2C325.91 67.66 304.63 67.66 284.46 57.08C265.64 47.12 250.26 23.5 250.14 4.56C250.14 4.25 250.14 2.74 250.14 0.01L216.68 0.01L183.1 0.13L92.06 52.15C31.46 87.34 1.24 105.3 1.4 106.04ZM258.99 71.96C275.35 84.38 295.04 91.02 315.33 91.02C335.63 91.02 355.31 84.38 371.67 71.96C383.97 62.73 396.03 46.25 400.95 32.22C401.1 31.8 401.88 29.66 403.28 25.82L421.37 25.82L439.58 25.82C486.81 52.84 513.05 67.85 518.3 70.85C561.6 95.57 597.03 116.49 597.03 117.22C597.15 120.42 561.97 215.26 560.74 215.26C560 215.26 540.45 208.86 517.07 201.12C493.7 193.37 474.26 186.98 473.77 186.98C473.16 186.98 472.79 256.97 472.79 342.59C472.79 352.96 472.79 404.83 472.79 498.2L315.33 498.2L157.87 498.2C157.87 404.83 157.87 352.97 157.87 342.59C157.87 256.97 157.5 186.98 156.89 186.98C156.39 186.98 136.96 193.38 113.59 201.13C90.21 208.88 70.65 215.27 69.92 215.27C68.44 215.27 33.14 118.95 33.87 116.86C34.12 116.12 69.43 95.33 112.36 70.73C117.56 67.74 143.6 52.82 190.47 25.95L208.92 25.95L227.37 25.83L229.71 32.22C241.03 52.56 250.79 65.81 258.99 71.96Z" id="a3t6y3MncL"></path><path d="M156.49 187.19L474.93 187.19L474.93 498.54L156.49 498.54L156.49 187.19Z" id="c1EWNcGrib"></path><path d="M156.49 91.45L472.8 91.45L472.8 187.19L156.49 187.19L156.49 91.45Z" id="dRRZYkfpy"></path><path d="M19.88 95.68L238.48 16.11L283.88 140.84L65.27 220.41L19.88 95.68Z" id="c1QPAp3D6l"></path><path d="M190.48 0.28L305.88 97.11L264.88 145.98L149.47 49.14L190.48 0.28Z" id="hkTGhwURu"></path><path d="M312.99 108.18L441.73 0.16L486.13 53.08L357.4 161.11L312.99 108.18Z" id="b4qmx8dAL"></path><path d="M393.52 19.02L612.13 98.59L566.73 223.32L348.13 143.75L393.52 19.02Z" id="e5oocR2Eoh"></path><path d="M226.13 78.79L394.18 78.79L394.18 147.87L226.13 147.87L226.13 78.79Z" id="aS2FCufgb"></path></defs><g><g><g><use xlink:href="#a3t6y3MncL" opacity="1" fill="#e3e5e6" fill-opacity="1"></use><g><use xlink:href="#a3t6y3MncL" opacity="1" fill-opacity="0" stroke="#000000" stroke-width="1" stroke-opacity="0"></use></g></g><g><use xlink:href="#c1EWNcGrib" opacity="1" fill="#e3e5e6" fill-opacity="1"></use></g><g><use xlink:href="#dRRZYkfpy" opacity="1" fill="#e3e5e6" fill-opacity="1"></use></g><g><use xlink:href="#c1QPAp3D6l" opacity="1" fill="#e3e5e6" fill-opacity="1"></use></g><g><use xlink:href="#hkTGhwURu" opacity="1" fill="#e3e5e6" fill-opacity="1"></use></g><g><use xlink:href="#b4qmx8dAL" opacity="1" fill="#e3e5e6" fill-opacity="1"></use></g><g><use xlink:href="#e5oocR2Eoh" opacity="1" fill="#e3e5e6" fill-opacity="1"></use></g><g><use xlink:href="#aS2FCufgb" opacity="1" fill="#e3e5e6" fill-opacity="1"></use></g></g></g></svg>